# xmcd
#
# Track frame offsets:
# 150
# 12308
# 26109
# 38577
# 45441
# 50979
# 64135
# 76489
# 88276
# 102420
# 114513
# 124086
# 137186
# 150339
# 164018
# 176559
# 186788
# 202004
# 212994
# 224861
# 236525
# 248760
# 260711
# 271961
# 283399
#
# Disc length: 3977 seconds
#
# Revision: 2
# Processed by: cddbd v1.5.1PL2 Copyright (c) Steve Scherf et al.
# Submitted via: Axialis_AX_CDPlayer 2.6
#
DISCID=870f8719
DTITLE=Various Artist - Country Roads
DYEAR=1900
DGENRE=
TTITLE0=Billie Jo Spears - You Can clever Tell (C'est La Vie)
TTITLE1=Patsy Cline - A Church A Courtroont And Then Goodbye
TTITLE2=Johnny Russel - Kaw Liga
TTITLE3=Waylon Jennings - Its So Easy
TTITLE4=Willie Nelson - The Ghost
TTITLE5=Dottie West - D.I.V.O.R.C.E.
TTITLE6=Johnny Russel - All I Have To Offer You (Is Me)
TTITLE7=Johnny Lee - Ramblin' Rose
TTITLE8=Freddy Fender - Wasted Days, And Wasted Nights
TTITLE9=Wanda Jackson - What In The World's Come Over You
TTITLE10=Lynn Anderson - Snowbird
TTITLE11=Don Williams - Where Do I Go From Here
TTITLE12=Faron Young - Swinging Doors
TTITLE13=Willie Nelson - A Moment Isn't Very Long
TTITLE14=Johnny Russel - Good Hearted Woman
TTITLE15=Carl Perkins - Daddy Sang Bass
TTITLE16=Jim Reeves - Making Believe
TTITLE17=Waylon Jennings - Dream Baby
TTITLE18=Kenny Rogers - Me And Bobby McGee
TTITLE19=Don Williams - Follow Me Back To Luisiana
TTITLE20=Stonewall Jackson - Ol' Blue
TTITLE21=Billie Jo Spears - Misty Blue
TTITLE22=Patsy Cline - Just Out Of Reach
TTITLE23=Sammi Smith - Help Me Make It Trough The night
TTITLE24=Lynn Anderson - Desperado
EXTD=
EXTT0=
EXTT1=
EXTT2=
EXTT3=
EXTT4=
EXTT5=
EXTT6=
EXTT7=
EXTT8=
EXTT9=
EXTT10=
EXTT11=
EXTT12=
EXTT13=
EXTT14=
EXTT15=
EXTT16=
EXTT17=
EXTT18=
EXTT19=
EXTT20=
EXTT21=
EXTT22=
EXTT23=
EXTT24=
PLAYORDER=
